<?xml version="1.0" encoding="UTF-8" standalone="no"?>
<svg
   xmlns:dc="http://purl.org/dc/elements/1.1/"
   xmlns:cc="http://creativecommons.org/ns#"
   xmlns:rdf="http://www.w3.org/1999/02/22-rdf-syntax-ns#"
   xmlns:svg="http://www.w3.org/2000/svg"
   xmlns="http://www.w3.org/2000/svg"
   xmlns:sodipodi="http://sodipodi.sourceforge.net/DTD/sodipodi-0.dtd"
   xmlns:inkscape="http://www.inkscape.org/namespaces/inkscape"
   version="1.1"
   preserveAspectRatio="xMidYMid meet"
   zoomAndPan="magnify"
   id="Naval_Ensign_of_the_United_Kingdom"
   viewBox="-420 -195 849.8875 496.68125"
   width="1214.125"
   height="764.125"
   inkscape:version="0.92.3 (2405546, 2018-03-11)"
   sodipodi:docname="flag-of-lojbanistan.svg">
  <metadata
     id="metadata23">
    <rdf:RDF>
      <cc:Work
         rdf:about="">
        <dc:format>image/svg+xml</dc:format>
        <dc:type
           rdf:resource="http://purl.org/dc/dcmitype/StillImage" />
        <dc:title></dc:title>
      </cc:Work>
    </rdf:RDF>
  </metadata>
  <sodipodi:namedview
     pagecolor="#ffffff"
     bordercolor="#666666"
     borderopacity="1"
     objecttolerance="10"
     gridtolerance="10"
     guidetolerance="10"
     inkscape:pageopacity="0"
     inkscape:pageshadow="2"
     inkscape:window-width="1600"
     inkscape:window-height="900"
     id="namedview21"
     showgrid="true"
     borderlayer="true"
     inkscape:snap-global="false"
     inkscape:zoom="0.72093772"
     inkscape:cx="638.35943"
     inkscape:cy="283.98766"
     inkscape:window-x="0"
     inkscape:window-y="0"
     inkscape:window-maximized="0"
     inkscape:current-layer="layer2"
     inkscape:snap-bbox="false"
     inkscape:snap-nodes="true"
     fit-margin-top="0"
     fit-margin-left="0"
     fit-margin-right="0"
     fit-margin-bottom="0"
     showguides="false"
     inkscape:guide-bbox="true">
    <inkscape:grid
       type="xygrid"
       id="grid3009"
       empspacing="25"
       visible="false"
       enabled="true"
       snapvisiblegridlinesonly="true"
       originx="7.0625px"
       originy="82.0625px" />
  </sodipodi:namedview>
  <defs
     id="defs3">
    <clipPath
       id="border">
      <rect
         x="-420"
         y="-195"
         width="840"
         height="390"
         id="rect6" />
    </clipPath>
  </defs>
  <g
     inkscape:groupmode="layer"
     id="layer2"
     inkscape:label="cross"
     style="display:inline"
     transform="translate(4.94375,57.44375)">
    <rect
       style="fill:#0e0004;fill-opacity:1;stroke:none;stroke-opacity:1"
       id="rect2994"
       width="849.88153"
       height="534.88837"
       x="-424.94373"
       y="-271.54684" />
    <path
       style="color:#000000;fill:#b40800;stroke:none;stroke-width:10;stroke-miterlimit:4;stroke-opacity:1;stroke-dasharray:none;marker:none;visibility:visible;display:inline;overflow:visible;enable-background:accumulate;fill-opacity:1"
       d="m 600,0 -75,75 36.75,0 0,261.75 -486.75,0 0,-36.75 -75,75 75,75 0,-36.75 486.75,0 0,261.75 -36.75,0 75,75 75,-75 -36.75,0 0,-261.75 486.75,0 0,36.75 75,-75 -75,-75 0,36.75 -486.75,0 L 638.25,75 675,75 600,0 z"
       id="path3012"
       inkscape:connector-curvature="0"
       transform="matrix(0.7,0,0,0.7,-420,-266.25)" />
  </g>
  <g
     inkscape:groupmode="layer"
     id="layer1"
     inkscape:label="rings"
     style="display:inline"
     transform="translate(4.94375,4.94375)">
    <path
       style="color:#000000;font-style:normal;font-variant:normal;font-weight:normal;font-stretch:normal;font-size:medium;line-height:normal;font-family:Sans;-inkscape-font-specification:Sans;text-indent:0;text-align:start;text-decoration:none;text-decoration-line:none;letter-spacing:normal;word-spacing:normal;text-transform:none;writing-mode:lr-tb;direction:ltr;baseline-shift:baseline;text-anchor:start;display:inline;overflow:visible;visibility:visible;fill:#faa916;fill-opacity:1;stroke:none;stroke-width:7;stroke-miterlimit:4;stroke-dasharray:none;stroke-opacity:1;marker:none;enable-background:accumulate"
       d="m 2.5e-6,-123.14494 c -93.1589995,0 -170.4452825,76.382689 -170.4452825,171.89494 0,95.51225 77.286283,171.89494 170.4452825,171.89494 93.1590025,0 170.4452775,-76.38269 170.4452775,-171.89494 0,-95.512251 -77.286275,-171.89494 -170.4452775,-171.89494 z m 0,43.489877 c 72.6921075,0 129.8547275,58.066206 129.8547275,128.405063 0,70.33886 -57.16262,128.40506 -129.8547275,128.40506 -72.6921095,0 -129.8547325,-58.0662 -129.8547325,-128.40506 0,-70.338857 57.162623,-128.405063 129.8547325,-128.405063 z"
       id="path2995"
       inkscape:connector-curvature="0" />
  </g>
</svg>
